<svg xmlns="http://www.w3.org/2000/svg" viewBox="0 0 860 238" role="img" aria-label="Novera Mobility" xmlns:c2pa="http://c2pa.org/manifest"><metadata><c2pa:manifest>AAAWgmp1bWIAAAAeanVtZGMycGEAEQAQgAAAqgA4m3EDYzJwYQAAABZcanVtYgAAAEdqdW1kYzJtYQARABCAAACqADibcQN1cm46YzJwYToxM2UwZDgyMi02YzA3LTRhNGUtOTA0ZC04ZmU2ZWMwZTUwOWYAAAADl2p1bWIAAAApanVtZGMyYXMAEQAQgAAAqgA4m3EDYzJwYS5hc3NlcnRpb25zAAAAALxqdW1iAAAARGp1bWRjYm9yABEAEIAAAKoAOJtxE2MycGEuaW5ncmVkaWVudC52MwAAAAAYYzJzaPY7JMrC+0bbn0iQ1lTn1iUAAABwY2JvcqNpZGM6Zm9ybWF0bWltYWdlL3N2Zyt4bWxqaW5zdGFuY2VJRHgseG1wOmlpZDpmZjEzOTY5OS01N2I2LTRhMjctYWY3NC05ZmUyNmE1MTVkODVscmVsYXRpb25zaGlwaHBhcmVudE9mAAAB4mp1bWIAAABBanVtZGNib3IAEQAQgAAAqgA4m3ETYzJwYS5hY3Rpb25zLnYyAAAAABhjMnNoaWE/XsbhPLnC254/PQe6FAAAAZljYm9yomdhY3Rpb25zgqJmYWN0aW9ua2MycGEub3BlbmVkanBhcmFtZXRlcnOha2luZ3JlZGllbnRzgaJjdXJseC1zZWxmI2p1bWJmPWMycGEuYXNzZXJ0aW9ucy9jMnBhLmluZ3JlZGllbnQudjNkaGFzaFggi6A/a5OXLXZeyB6HWU2OpTDqenIamX5cUSUpe/PvTcykZmFjdGlvbngdY29tLmFudGhyb3BpYy5jbGF1ZGUucHJvdmlkZWRqcGFyYW1ldGVyc6F4H2NvbS5hbnRocm9waWMub3JpZ2luLWNvbmZpZGVuY2VndW5rbm93bmtkZXNjcmlwdGlvbnhmQ2xhdWRlIHByb3ZpZGVkIHRoaXMgZmlsZSBhdCB0aGUgcmVxdWVzdCBvZiBhIHVzZXIgYW5kIG1heSBoYXZlIGNyZWF0ZWQgb3IgbW9kaWZpZWQgdGhlIGZpbGUgY29udGVudHMubXNvZnR3YXJlQWdlbnShZG5hbWVmQ2xhdWRlcmFsbEFjdGlvbnNJbmNsdWRlZPUAAADIanVtYgAAAEBqdW1kY2JvcgARABCAAACqADibcRNjMnBhLmhhc2guZGF0YQAAAAAYYzJzaET+10dM73LmahKrq6mL0AwAAACAY2JvcqVjYWxnZnNoYTI1NmNwYWRNAAAAAAAAAAAAAAAAAGRoYXNoWCD1pgGW/Sta7RtbX6PginH7nluZX0+mWaCEDPk+Sfk5f2RuYW1lbmp1bWJmIG1hbmlmZXN0amV4Y2x1c2lvbnOBomVzdGFydBilZmxlbmd0aBkeBAAAAj5qdW1iAAAAJ2p1bWRjMmNsABEAEIAAAKoAOJtxA2MycGEuY2xhaW0udjIAAAACD2Nib3KlY2FsZ2ZzaGEyNTZpc2lnbmF0dXJleE1zZWxmI2p1bWJmPS9jMnBhL3VybjpjMnBhOjEzZTBkODIyLTZjMDctNGE0ZS05MDRkLThmZTZlYzBlNTA5Zi9jMnBhLnNpZ25hdHVyZWppbnN0YW5jZUlEeCx4bXA6aWlkOmVjNmFkYzIzLTViN2EtNDZhOC05YjJhLWJiZDZhN2JjMDEzOXJjcmVhdGVkX2Fzc2VydGlvbnODomN1cmx4LXNlbGYjanVtYmY9YzJwYS5hc3NlcnRpb25zL2MycGEuaW5ncmVkaWVudC52M2RoYXNoWCCLoD9rk5ctdl7IHodZTY6lMOp6chqZflxRJSl78+9NzKJjdXJseCpzZWxmI2p1bWJmPWMycGEuYXNzZXJ0aW9ucy9jMnBhLmFjdGlvbnMudjJkaGFzaFggUNtnN9DNZOC793vgQRxgwyH/Ppfebvz0NGGxHRu6cyWiY3VybHgpc2VsZiNqdW1iZj1jMnBhLmFzc2VydGlvbnMvYzJwYS5oYXNoLmRhdGFkaGFzaFggaNoXXAnH1cFDL8sI+fRobHApvVm+zhmynnK8UTuvV290Y2xhaW1fZ2VuZXJhdG9yX2luZm+jZG5hbWVvQW50aHJvcGljIEZpbGVzZ3ZlcnNpb25lMS4wLjBrc3BlY1ZlcnNpb25lMi40LjAAABA4anVtYgAAAChqdW1kYzJjcwARABCAAACqADibcQNjMnBhLnNpZ25hdHVyZQAAABAIY2JvctKEWQISogEmGCFZAgowggIGMIIBjaADAgECAhRA5aAK7sI50L64g/oGQgU9Z1UTADAKBggqhkjOPQQDAzBJMRcwFQYDVQQKEw5BbnRocm9waWMsIFBCQzEuMCwGA1UEAxMlQW50aHJvcGljIENvbnRlbnQgQ3JlZGVudGlhbHMgUm9vdCBDQTAeFw0yNjA4MDcxODQzNTZaFw0yODA4MDYxOTQzNTZaMEQxFzAVBgNVBAoTDkFudGhyb3BpYywgUEJDMSkwJwYDVQQDEyBBbnRocm9waWMgQ2xhdWRlIENvbnRlbnQgU2lnbmluZzBZMBMGByqGSM49AgEGCCqGSM49AwEHA0IABJh6CmvLUBgFFNU0vUKlOVtE6djd17L5SuwX0LemFisBM3dkd/3cyjxFA3Qo5S46fX0/ihY0VZ7mfb9KF703t5OjWDBWMA4GA1UdDwEB/wQEAwIHgDAVBgNVHSUEDjAMBgorBgEEAYPoXgIBMAwGA1UdEwEB/wQCMAAwHwYDVR0jBBgwFoAUzlHiBIFOZFsj+OPEz5o+nMHXXMIwCgYIKoZIzj0EAwMDZwAwZAIwMXMdFJ4BetLLVY7ORuE9noqbbAZOZn/aArXyTwFAZfKrPzxF2vPoJNf1+UCdg1XGAjBwX1zd9WGqYkqmL5SFqw1QySjr1zJfpJM9+1rdDwSPLMOPOjKuiXjoU/pUUeG9RwmhY3BhZFkNngAAAAAAAAAAAAAAAAAAAAAAAAAAAAAAAAAAAAAAAAAAAAAAAAAAAAAAAAAAAAAAAAAAAAAAAAAAAAAAAAAAAAAAAAAAAAAAAAAAAAAAAAAAAAAAAAAAAAAAAAAAAAAAAAAAAAAAAAAAAAAAAAAAAAAAAAAAAAAAAAAAAAAAAAAAAAAAAAAAAAAAAAAAAAAAAAAAAAAAAAAAAAAAAAAAAAAAAAAAAAAAAAAAAAAAAAAAAAAAAAAAAAAAAAAAAAAAAAAAAAAAAAAAAAAAAAAAAAAAAAAAAAAAAAAAAAAAAAAAAAAAAAAAAAAAAAAAAAAAAAAAAAAAAAAAAAAAAAAAAAAAAAAAAAAAAAAAAAAAAAAAAAAAAAAAAAAAAAAAAAAAAAAAAAAAAAAAAAAAAAAAAAAAAAAAAAAAAAAAAAAAAAAAAAAAAAAAAAAAAAAAAAAAAAAAAAAAAAAAAAAAAAAAAAAAAAAAAAAAAAAAAAAAAAAAAAAAAAAAAAAAAAAAAAAAAAAAAAAAAAAAAAAAAAAAAAAAAAAAAAAAAAAAAAAAAAAAAAAAAAAAAAAAAAAAAAAAAAAAAAAAAAAAAAAAAAAAAAAAAAAAAAAAAAAAAAAAAAAAAAAAAAAAAAAAAAAAAAAAAAAAAAAAAAAAAAAAAAAAAAAAAAAAAAAAAAAAAAAAAAAAAAAAAAAAAAAAAAAAAAAAAAAAAAAAAAAAAAAAAAAAAAAAAAAAAAAAAAAAAAAAAAAAAAAAAAAAAAAAAAAAAAAAAAAAAAAAAAAAAAAAAAAAAAAAAAAAAAAAAAAAAAAAAAAAAAAAAAAAAAAAAAAAAAAAAAAAAAAAAAAAAAAAAAAAAAAAAAAAAAAAAAAAAAAAAAAAAAAAAAAAAAAAAAAAAAAAAAAAAAAAAAAAAAAAAAAAAAAAAAAAAAAAAAAAAAAAAAAAAAAAAAAAAAAAAAAAAAAAAAAAAAAAAAAAAAAAAAAAAAAAAAAAAAAAAAAAAAAAAAAAAAAAAAAAAAAAAAAAAAAAAAAAAAAAAAAAAAAAAAAAAAAAAAAAAAAAAAAAAAAAAAAAAAAAAAAAAAAAAAAAAAAAAAAAAAAAAAAAAAAAAAAAAAAAAAAAAAAAAAAAAAAAAAAAAAAAAAAAAAAAAAAAAAAAAAAAAAAAAAAAAAAAAAAAAAAAAAAAAAAAAAAAAAAAAAAAAAAAAAAAAAAAAAAAAAAAAAAAAAAAAAAAAAAAAAAAAAAAAAAAAAAAAAAAAAAAAAAAAAAAAAAAAAAAAAAAAAAAAAAAAAAAAAAAAAAAAAAAAAAAAAAAAAAAAAAAAAAAAAAAAAAAAAAAAAAAAAAAAAAAAAAAAAAAAAAAAAAAAAAAAAAAAAAAAAAAAAAAAAAAAAAAAAAAAAAAAAAAAAAAAAAAAAAAAAAAAAAAAAAAAAAAAAAAAAAAAAAAAAAAAAAAAAAAAAAAAAAAAAAAAAAAAAAAAAAAAAAAAAAAAAAAAAAAAAAAAAAAAAAAAAAAAAAAAAAAAAAAAAAAAAAAAAAAAAAAAAAAAAAAAAAAAAAAAAAAAAAAAAAAAAAAAAAAAAAAAAAAAAAAAAAAAAAAAAAAAAAAAAAAAAAAAAAAAAAAAAAAAAAAAAAAAAAAAAAAAAAAAAAAAAAAAAAAAAAAAAAAAAAAAAAAAAAAAAAAAAAAAAAAAAAAAAAAAAAAAAAAAAAAAAAAAAAAAAAAAAAAAAAAAAAAAAAAAAAAAAAAAAAAAAAAAAAAAAAAAAAAAAAAAAAAAAAAAAAAAAAAAAAAAAAAAAAAAAAAAAAAAAAAAAAAAAAAAAAAAAAAAAAAAAAAAAAAAAAAAAAAAAAAAAAAAAAAAAAAAAAAAAAAAAAAAAAAAAAAAAAAAAAAAAAAAAAAAAAAAAAAAAAAAAAAAAAAAAAAAAAAAAAAAAAAAAAAAAAAAAAAAAAAAAAAAAAAAAAAAAAAAAAAAAAAAAAAAAAAAAAAAAAAAAAAAAAAAAAAAAAAAAAAAAAAAAAAAAAAAAAAAAAAAAAAAAAAAAAAAAAAAAAAAAAAAAAAAAAAAAAAAAAAAAAAAAAAAAAAAAAAAAAAAAAAAAAAAAAAAAAAAAAAAAAAAAAAAAAAAAAAAAAAAAAAAAAAAAAAAAAAAAAAAAAAAAAAAAAAAAAAAAAAAAAAAAAAAAAAAAAAAAAAAAAAAAAAAAAAAAAAAAAAAAAAAAAAAAAAAAAAAAAAAAAAAAAAAAAAAAAAAAAAAAAAAAAAAAAAAAAAAAAAAAAAAAAAAAAAAAAAAAAAAAAAAAAAAAAAAAAAAAAAAAAAAAAAAAAAAAAAAAAAAAAAAAAAAAAAAAAAAAAAAAAAAAAAAAAAAAAAAAAAAAAAAAAAAAAAAAAAAAAAAAAAAAAAAAAAAAAAAAAAAAAAAAAAAAAAAAAAAAAAAAAAAAAAAAAAAAAAAAAAAAAAAAAAAAAAAAAAAAAAAAAAAAAAAAAAAAAAAAAAAAAAAAAAAAAAAAAAAAAAAAAAAAAAAAAAAAAAAAAAAAAAAAAAAAAAAAAAAAAAAAAAAAAAAAAAAAAAAAAAAAAAAAAAAAAAAAAAAAAAAAAAAAAAAAAAAAAAAAAAAAAAAAAAAAAAAAAAAAAAAAAAAAAAAAAAAAAAAAAAAAAAAAAAAAAAAAAAAAAAAAAAAAAAAAAAAAAAAAAAAAAAAAAAAAAAAAAAAAAAAAAAAAAAAAAAAAAAAAAAAAAAAAAAAAAAAAAAAAAAAAAAAAAAAAAAAAAAAAAAAAAAAAAAAAAAAAAAAAAAAAAAAAAAAAAAAAAAAAAAAAAAAAAAAAAAAAAAAAAAAAAAAAAAAAAAAAAAAAAAAAAAAAAAAAAAAAAAAAAAAAAAAAAAAAAAAAAAAAAAAAAAAAAAAAAAAAAAAAAAAAAAAAAAAAAAAAAAAAAAAAAAAAAAAAAAAAAAAAAAAAAAAAAAAAAAAAAAAAAAAAAAAAAAAAAAAAAAAAAAAAAAAAAAAAAAAAAAAAAAAAAAAAAAAAAAAAAAAAAAAAAAAAAAAAAAAAAAAAAAAAAAAAAAAAAAAAAAAAAAAAAAAAAAAAAAAAAAAAAAAAAAAAAAAAAAAAAAAAAAAAAAAAAAAAAAAAAAAAAAAAAAAAAAAAAAAAAAAAAAAAAAAAAAAAAAAAAAAAAAAAAAAAAAAAAAAAAAAAAAAAAAAAAAAAAAAAAAAAAAAAAAAAAAAAAAAAAAAAAAAAAAAAAAAAAAAAAAAAAAAAAAAAAAAAAAAAAAAAAAAAAAAAAAAAAAAAAAAAAAAAAAAAAAAAAAAAAAAAAAAAAAAAAAAAAAAAAAAAAAAAAAAAAAAAAAAAAAAAAAAAAAAAAAAAAAAAAAAAAAAAAAAAAAAAAAAAAAAAAAAAAAAAAAAAAAAAAAAAAAAAAAAAAAAAAAAAAAAAAAAAAAAAAAAAAAAAAAAAAAAAAAAAAAAAAAAAAAAAAAAAAAAAAAAAAAAAAAAAAAAAAAAAAAAAAAAAAAAAAAAAAAAAAAAAAAAAAAAAAAAAAAAAAAAAAAAAAAAAAAAAAAAAAAAAAAAAAAAAAAAAAAAAAAAAAAAAAAAAAAAAAAAAAAAAAAAAAAAAAAAAAAAAAAAAAAAAAAAAAAAAAAAAAAAAAAAAAAAAAAAAAAAAAAAAAAAAAAAAAAAAAAAAAAAAAAAAAAAAAAAAAAAAAAAAAAAAAAAAAAAAAAAAAAAAAAAAAAAAAAAAAAAAAAAAAAAAAAAAAAAAAAAAAAAAAAAAAAAAAAAAAAAAAAAAAAAAAAAAAAAAAAAAAAAAAAAAAAAAAAAAAAAAAAAAAAAAAAAAAAAAAAAAAAAAAAAAAAAAAAAAAAAAAAAAAAAAAAAAAAAAAAAAAAAAAAAAAAAAAAAAAAAAAAAAAAAAAAAAAAAAAAAAAAAAAAAAAAAAAAAAAAAAAAAAAAAAAAAAAAAAAAAAAAAAAAAAAAAAAAAAAAAAAAAAAAAAAAAAAAAAAAAAAAAAAAAAAAAAAAAAAAAAAAAAAAAAAAAAAAAAAAAAAAAAAAAAAAAAAAAAAAAAAAAAAAAAAAAAAAAAAAAAAAAAAAAAAAAAAAAAAAAAAAAAAAAAAAAAAAAAAAAAAAAAAAAAAAAAAAAAAAAAAAAAAAAAAAAAAAAAAAAAAAAAAAAAAAAAAAAAAAAAAAAAAAAAAAAAAAAAAAAAAAAAAAAAAAAAAAAAAAAAAAAAAAAAAAAAAAAAAAAAAAAAAAAAAAAAAAAAAAAAAAAAAAAAAAAAAAAAAAAAAAAAAAAAAAAAAAAAAAAAAAAAAAAAAAAAAAAAAAAAAAAAAAAAAAAAAAAAAAAAAAAAAAAAAAAAAAAAAAAAAAAAAAAAAAAAAAAAAAAAAAAAAAAAAAAAAAAAAAAAAAAAAAAAAAAAAAAAAAAAAAAAAAAAAAAAAAAAAAAAAAAAAAAAAAAAAAAAAAAAAAAAAAAAAAAAAAAAAAAAAAAAAAAAAAAAAAAAAAAAAAAAAAAAAAAAAAAAAAAAAAAAAAAAAAAAAAAAAAAAAAAAAAAAAAAAAAAAAAAAAAAAAAAAAAAAAAAAAAAAAAAAAAAAAAAAAAAAAAAAAAAAAAAAAAAAAAAAAAAAAAAAAAAAAAAAAAAAAAAAAAAAAAAAAAAAAAAAAAAPZYQNY42cnCSPWtn7BsR+lX8nbZDnMawI/ZR+zP6sRx42WnlJnmw8WsNBfMcEexp2q/rNdDozvN4su8M9yxyaM/h+E=</c2pa:manifest></metadata><path fill="#FFFFFF" fill-rule="evenodd" d="M108.12 230.63 C104.62 229.15 103.68 228.72 98.88 226.38 C96.54 225.24 93.89 223.96 92.99 223.54 C92.09 223.12 90.97 222.52 90.49 222.20 C90.01 221.88 88.78 221.19 87.75 220.66 C86.72 220.13 85.65 219.50 85.38 219.27 C84.56 218.58 82.92 217.59 82.25 217.38 C81.90 217.27 80.95 216.70 80.12 216.12 C79.30 215.54 77.85 214.65 76.91 214.14 C75.96 213.64 74.78 212.90 74.28 212.51 C73.78 212.12 72.98 211.58 72.50 211.32 C71.09 210.56 66.26 207.38 64.54 206.08 C63.67 205.42 62.30 204.48 61.50 204.00 C60.70 203.52 58.47 201.92 56.54 200.46 C54.62 198.99 52.73 197.62 52.33 197.41 C51.94 197.21 50.95 196.46 50.12 195.75 C49.30 195.04 48.22 194.25 47.73 194.00 C47.24 193.74 46.68 193.34 46.48 193.10 C46.29 192.86 43.41 190.27 40.10 187.35 C33.39 181.44 29.35 177.29 25.39 172.25 C23.92 170.39 22.30 168.37 21.78 167.75 C21.26 167.13 20.69 166.34 20.50 166.00 C20.32 165.66 19.71 164.76 19.14 164.00 C18.29 162.87 15.80 158.72 14.59 156.42 C13.17 153.74 10.51 147.95 10.38 147.25 C10.18 146.22 9.10 142.75 8.59 141.50 C8.24 140.64 7.45 137.18 7.00 134.50 C6.35 130.64 6.26 123.64 6.25 74.39 L6.23 22.91 L6.93 22.33 C7.31 22.01 8.20 21.58 8.90 21.37 C9.59 21.16 10.60 20.77 11.14 20.49 C11.67 20.22 12.29 20.00 12.52 20.00 C13.00 20.00 17.29 18.66 20.82 17.41 C22.17 16.93 23.86 16.41 24.57 16.24 C26.35 15.82 30.28 14.53 30.61 14.26 C30.76 14.14 31.32 13.97 31.88 13.87 C32.42 13.78 33.75 13.48 34.82 13.22 C35.88 12.95 37.51 12.58 38.44 12.38 C40.27 12.00 42.45 11.44 45.00 10.71 C45.89 10.46 47.58 10.13 48.75 9.99 C49.92 9.84 51.79 9.51 52.91 9.24 C56.34 8.41 55.66 8.02 62.12 14.57 C65.29 17.77 68.72 21.34 69.75 22.49 C71.86 24.85 74.93 28.16 78.48 31.89 C79.80 33.27 81.61 35.20 82.50 36.17 C87.12 41.22 88.19 42.35 88.86 42.96 C89.27 43.33 89.83 43.90 90.11 44.23 C90.40 44.57 92.03 46.32 93.75 48.14 C95.47 49.95 97.72 52.35 98.75 53.47 C99.78 54.59 102.83 57.78 105.53 60.56 C108.23 63.35 112.17 67.53 114.28 69.87 C116.40 72.20 119.64 75.69 121.50 77.62 C123.36 79.56 126.22 82.60 127.88 84.38 C134.63 91.67 138.80 96.08 139.54 96.70 C139.97 97.06 140.52 97.67 140.75 98.07 C141.19 98.79 145.50 103.46 148.50 106.49 C149.40 107.39 151.76 109.87 153.74 112.00 C155.73 114.13 158.93 117.56 160.85 119.62 C162.78 121.69 164.82 123.88 165.39 124.50 C169.58 129.06 175.57 135.37 176.84 136.59 C178.73 138.40 179.39 138.85 179.87 138.66 C180.21 138.53 180.25 133.37 180.25 93.35 L180.25 48.18 L179.38 47.36 C178.90 46.91 178.17 46.47 177.77 46.38 C177.36 46.29 176.77 46.02 176.45 45.78 C175.81 45.30 172.48 43.75 172.08 43.75 C171.94 43.75 170.36 43.02 168.57 42.13 C164.86 40.29 163.20 39.75 162.55 40.16 C162.15 40.41 162.12 42.41 162.00 69.03 L161.88 97.62 L161.32 97.70 C160.91 97.76 160.63 97.56 160.26 96.95 C159.75 96.12 155.41 91.48 149.91 85.89 C146.57 82.51 145.47 81.22 144.97 80.12 C144.68 79.50 144.64 73.46 144.70 43.06 L144.78 6.74 L145.33 6.38 C145.79 6.08 146.41 6.06 149.13 6.27 C150.91 6.41 153.50 6.69 154.88 6.90 C156.25 7.11 158.50 7.39 159.88 7.53 C161.25 7.66 162.94 7.93 163.62 8.12 C164.31 8.30 165.49 8.53 166.25 8.63 C167.01 8.72 168.58 9.00 169.75 9.25 C170.92 9.50 172.98 9.83 174.34 9.98 C175.69 10.14 176.99 10.36 177.22 10.48 C177.63 10.70 180.94 11.58 184.88 12.51 C190.19 13.77 192.07 14.28 194.38 15.08 C195.75 15.56 197.55 16.08 198.38 16.23 C199.20 16.38 200.47 16.72 201.19 17.00 C201.91 17.27 202.70 17.50 202.94 17.50 C203.18 17.50 203.71 17.68 204.12 17.89 C205.09 18.40 209.88 20.00 210.42 20.00 C210.65 20.00 211.30 20.21 211.86 20.47 C212.42 20.72 213.75 21.34 214.81 21.83 L216.75 22.73 L216.75 75.18 L216.74 127.62 L216.02 132.62 C215.62 135.38 215.19 137.91 215.06 138.25 C214.92 138.59 214.68 139.66 214.52 140.62 C214.23 142.39 212.98 146.35 212.36 147.50 C211.84 148.45 210.50 151.99 210.50 152.40 C210.50 152.59 210.06 153.40 209.52 154.19 C208.99 154.98 208.04 156.62 207.41 157.84 C206.78 159.07 206.11 160.25 205.91 160.47 C205.72 160.69 205.31 161.38 205.00 162.00 C204.69 162.62 203.62 164.26 202.62 165.64 C201.63 167.03 200.69 168.40 200.53 168.69 C200.24 169.24 197.50 172.47 195.64 174.47 C195.05 175.11 193.64 176.64 192.49 177.88 C190.03 180.53 183.63 186.82 181.48 188.69 C180.31 189.71 179.88 189.95 179.55 189.78 C178.95 189.46 176.03 186.35 171.66 181.42 C170.27 179.84 167.70 176.97 165.04 174.02 C164.13 173.00 162.70 171.47 161.88 170.61 C161.05 169.75 159.59 168.17 158.62 167.11 C155.04 163.14 154.01 162.03 150.24 158.03 C148.11 155.77 145.93 153.42 145.38 152.79 C144.82 152.17 143.64 150.86 142.74 149.89 C141.84 148.92 140.61 147.56 140.01 146.88 C139.03 145.76 133.55 139.96 128.57 134.76 C127.57 133.72 126.48 132.49 126.14 132.03 C125.80 131.56 125.32 130.99 125.07 130.75 C122.95 128.68 114.51 119.65 113.50 118.37 C112.64 117.26 105.01 109.21 102.61 106.88 C101.76 106.05 100.20 104.36 99.13 103.12 C98.06 101.89 94.64 98.23 91.52 95.00 C88.40 91.77 85.08 88.28 84.14 87.25 C83.20 86.22 81.91 84.87 81.27 84.25 C80.36 83.36 76.06 78.84 72.12 74.63 C71.84 74.33 71.44 73.98 71.24 73.86 C71.04 73.73 70.54 73.17 70.13 72.62 C69.29 71.51 61.84 63.94 61.23 63.60 C61.02 63.47 60.67 63.12 60.46 62.81 C59.61 61.57 50.89 52.39 46.95 48.58 C44.32 46.05 43.61 45.64 43.03 46.34 C42.69 46.74 42.60 151.57 42.93 152.42 C43.60 154.12 49.44 160.20 52.78 162.68 C53.55 163.25 55.03 164.50 56.07 165.47 C57.92 167.18 59.13 168.00 59.82 168.00 C60.33 168.00 60.50 152.20 60.37 116.38 C60.31 100.15 60.32 86.56 60.40 86.17 C60.68 84.84 61.33 85.55 63.70 89.75 C65.78 93.44 68.25 98.26 68.25 98.63 C68.25 98.70 68.71 99.58 69.27 100.57 C69.83 101.56 70.69 103.38 71.17 104.61 C71.65 105.84 72.26 107.13 72.52 107.46 C72.78 107.79 73.00 108.19 73.01 108.35 C73.01 108.50 73.35 109.30 73.76 110.12 C74.17 110.94 74.50 111.74 74.50 111.90 C74.50 112.05 74.96 113.07 75.52 114.15 C76.09 115.24 76.69 116.52 76.87 117.00 C77.44 118.59 79.56 123.12 79.93 123.54 C80.12 123.77 80.44 124.55 80.64 125.29 C80.83 126.02 81.39 127.58 81.88 128.75 C82.92 131.23 84.05 134.16 84.58 135.75 C85.44 138.32 86.01 139.84 86.22 140.10 C86.35 140.25 86.63 140.99 86.85 141.75 C87.32 143.32 88.09 145.42 88.75 146.88 C89.00 147.43 89.48 148.49 89.82 149.25 C90.16 150.01 90.52 151.02 90.61 151.50 C90.82 152.57 91.88 155.96 92.49 157.50 C93.07 158.98 94.25 162.52 94.50 163.55 C94.61 164.01 95.06 165.33 95.50 166.50 C95.93 167.67 96.55 169.53 96.86 170.62 C97.17 171.72 97.68 173.52 97.99 174.62 C98.31 175.71 98.70 176.84 98.88 177.12 C99.06 177.40 99.28 178.00 99.38 178.46 C99.47 178.92 99.75 179.77 100.00 180.34 C100.24 180.91 100.52 181.94 100.61 182.62 C100.80 184.02 102.21 189.24 102.50 189.62 C102.75 189.96 103.67 193.26 104.37 196.38 C105.34 200.65 105.78 202.33 106.28 203.55 C106.54 204.19 106.75 204.98 106.75 205.30 C106.75 205.61 106.99 206.83 107.27 208.00 C107.56 209.17 107.94 210.91 108.12 211.88 C108.52 214.01 109.13 216.47 109.90 219.12 C110.22 220.22 110.60 222.25 110.75 223.62 C110.89 225.00 111.20 227.10 111.43 228.30 C111.75 230.01 111.78 230.61 111.55 231.11 C111.39 231.46 111.12 231.74 110.94 231.72 C110.77 231.70 109.50 231.21 108.12 230.63 Z M141.27 216.09 C140.98 215.73 140.63 214.97 140.49 214.40 C140.17 213.11 139.04 210.19 137.93 207.75 C137.46 206.72 136.93 205.43 136.75 204.88 C136.57 204.32 136.00 202.99 135.47 201.91 C134.93 200.83 134.08 198.92 133.58 197.66 C133.07 196.41 132.17 194.52 131.58 193.47 C130.98 192.41 130.50 191.42 130.50 191.26 C130.50 190.94 129.18 187.72 128.70 186.88 C128.16 185.92 126.80 183.12 126.26 181.88 C125.97 181.19 125.42 180.12 125.06 179.50 C124.69 178.88 124.02 177.49 123.58 176.40 C123.13 175.32 122.60 174.25 122.41 174.03 C122.06 173.63 121.62 172.84 120.64 170.85 C117.88 165.22 115.29 160.26 114.77 159.59 C114.48 159.23 114.25 158.82 114.25 158.68 C114.25 158.28 112.01 153.97 111.33 153.06 C111.00 152.61 110.60 151.88 110.45 151.44 C110.29 150.99 109.91 150.23 109.58 149.75 C109.26 149.28 109.00 148.81 109.00 148.72 C109.00 148.63 108.59 147.95 108.09 147.21 C107.60 146.48 106.98 145.43 106.72 144.88 C106.46 144.32 105.92 143.37 105.51 142.75 C105.11 142.13 104.22 140.61 103.54 139.38 C102.86 138.14 101.91 136.56 101.43 135.87 C100.96 135.18 100.50 134.39 100.41 134.11 C100.17 133.35 98.85 130.97 96.62 127.29 C95.53 125.47 94.23 123.32 93.75 122.52 C93.27 121.73 92.42 120.47 91.86 119.72 C91.30 118.98 90.50 117.70 90.08 116.87 C89.66 116.05 88.71 114.45 87.97 113.33 C87.23 112.21 85.84 110.03 84.88 108.49 C83.91 106.94 82.59 104.96 81.94 104.07 C81.28 103.19 80.58 102.14 80.37 101.73 C80.16 101.33 79.65 100.52 79.23 99.94 C77.81 97.92 77.22 96.96 77.30 96.76 C77.51 96.22 79.55 98.14 82.90 102.03 C84.94 104.40 87.42 107.19 88.40 108.23 C89.39 109.27 90.63 110.70 91.16 111.40 C92.16 112.72 93.55 114.38 95.49 116.54 C96.10 117.23 96.83 118.17 97.12 118.63 C97.40 119.09 98.32 120.29 99.18 121.30 C101.72 124.28 106.34 129.98 106.81 130.70 C107.05 131.07 107.92 132.16 108.76 133.12 C109.59 134.09 111.97 137.18 114.04 140.00 C119.33 147.18 119.58 147.50 119.80 147.50 C119.90 147.50 120.22 147.96 120.51 148.52 C120.80 149.09 121.85 150.63 122.86 151.96 C123.86 153.29 125.53 155.64 126.57 157.19 C127.62 158.74 128.87 160.54 129.37 161.19 C129.86 161.84 130.79 163.16 131.42 164.12 C132.06 165.09 133.01 166.42 133.54 167.10 C134.07 167.77 134.50 168.42 134.50 168.54 C134.50 168.67 135.06 169.52 135.75 170.42 C136.44 171.33 137.00 172.16 137.00 172.27 C137.00 172.37 137.65 173.38 138.44 174.50 C139.23 175.63 140.25 177.18 140.71 177.96 C141.18 178.74 142.15 180.28 142.87 181.38 C143.59 182.47 145.17 184.95 146.38 186.88 C147.59 188.80 148.94 190.82 149.38 191.38 C149.82 191.93 150.37 192.77 150.62 193.25 C150.86 193.73 151.76 195.19 152.62 196.50 C155.42 200.77 158.33 206.24 158.11 206.83 C157.98 207.15 156.59 208.05 152.80 210.25 C151.73 210.87 150.08 211.89 149.12 212.52 C148.16 213.15 146.82 213.98 146.14 214.37 C145.46 214.76 144.41 215.46 143.81 215.91 C142.49 216.92 141.95 216.96 141.27 216.09 Z M388.50 198.07 C383.67 197.68 381.44 197.00 378.60 195.07 C378.03 194.69 377.13 194.08 376.60 193.72 C375.37 192.90 375.24 192.74 372.73 189.25 C370.83 186.60 370.62 186.19 370.07 184.00 C369.11 180.19 369.05 177.07 369.87 172.88 C370.59 169.15 370.53 169.28 373.27 165.50 C375.34 162.65 377.57 160.78 380.39 159.51 C382.18 158.71 384.95 157.76 386.25 157.50 C387.68 157.22 393.24 157.22 394.88 157.50 C396.01 157.70 399.12 158.68 400.38 159.24 C400.65 159.37 401.38 159.68 402.00 159.94 C403.40 160.54 406.74 163.17 407.51 164.29 C407.82 164.75 408.61 165.75 409.26 166.51 C409.91 167.26 410.52 168.26 410.62 168.72 C410.72 169.18 411.00 170.02 411.25 170.59 C411.49 171.16 411.94 173.13 412.24 174.96 C412.79 178.22 412.79 178.35 412.37 180.83 C411.15 188.15 407.51 193.02 400.62 196.54 C399.21 197.26 398.81 197.35 394.62 197.87 C391.71 198.24 390.85 198.26 388.50 198.07 Z M275.63 197.42 C275.15 197.06 275.14 196.69 275.22 178.11 C275.26 167.68 275.39 158.91 275.50 158.61 C275.80 157.84 276.20 157.75 279.34 157.75 C282.59 157.75 282.82 157.85 284.21 159.93 C286.21 162.94 286.52 163.43 287.34 165.01 C287.82 165.91 288.65 167.32 289.20 168.15 C289.75 168.98 290.46 170.20 290.77 170.86 C291.08 171.52 291.74 172.61 292.23 173.27 C292.72 173.94 293.68 175.36 294.35 176.43 C297.00 180.64 297.27 181.00 297.93 181.16 C298.49 181.30 298.72 181.17 299.41 180.35 C299.86 179.81 300.30 179.09 300.38 178.73 C300.46 178.38 301.00 177.44 301.60 176.65 C302.19 175.86 303.11 174.35 303.65 173.29 C304.19 172.24 305.05 170.77 305.56 170.02 C306.08 169.28 306.50 168.55 306.51 168.40 C306.51 168.25 307.19 167.06 308.02 165.75 C308.85 164.44 309.80 162.79 310.13 162.08 C311.10 159.99 312.42 158.31 313.32 158.03 C313.76 157.90 315.45 157.78 317.06 157.78 C319.57 157.78 320.03 157.84 320.22 158.20 C320.35 158.44 320.51 167.10 320.59 177.81 C320.71 194.80 320.68 197.03 320.35 197.37 C319.81 197.90 313.34 197.93 312.61 197.40 C312.15 197.06 312.13 196.59 312.06 186.58 C312.02 180.83 311.93 175.87 311.86 175.56 C311.53 174.03 310.02 175.88 307.51 180.86 C306.88 182.11 305.95 183.77 305.43 184.57 C304.92 185.36 304.50 186.10 304.50 186.21 C304.50 186.31 303.93 187.27 303.24 188.34 C302.55 189.41 301.63 190.95 301.19 191.78 C300.76 192.61 300.23 193.37 300.02 193.47 C299.80 193.58 298.75 193.62 297.68 193.56 C295.46 193.43 295.61 193.56 293.76 190.12 C293.16 189.03 292.31 187.68 291.86 187.12 C291.42 186.57 290.58 185.24 290.01 184.15 C289.43 183.06 288.46 181.42 287.85 180.50 C287.25 179.57 286.75 178.73 286.75 178.62 C286.75 178.51 286.39 177.71 285.94 176.84 C285.15 175.27 284.53 174.85 284.08 175.56 C283.97 175.73 283.87 180.64 283.85 186.45 C283.83 194.24 283.74 197.11 283.52 197.33 C283.04 197.81 276.26 197.88 275.63 197.42 Z M462.00 197.43 L461.38 197.11 L461.22 177.87 C461.09 161.51 461.12 158.57 461.42 158.25 C461.72 157.93 463.25 157.88 472.70 157.95 C486.72 158.04 489.16 158.41 492.65 161.01 C494.38 162.30 495.35 163.92 495.88 166.42 C496.29 168.36 496.29 168.55 495.88 170.29 C495.35 172.49 494.39 174.27 493.02 175.61 C491.90 176.70 491.76 177.14 492.46 177.36 C492.71 177.44 493.77 178.38 494.80 179.44 C497.15 181.86 497.61 183.09 497.59 186.88 C497.57 190.25 497.03 192.04 495.64 193.39 C493.99 194.99 490.69 196.63 487.86 197.28 C485.95 197.71 462.81 197.85 462.00 197.43 Z M546.83 197.37 C546.53 197.15 546.48 194.06 546.49 177.76 C546.51 163.52 546.59 158.32 546.80 158.06 C547.23 157.54 554.67 157.71 555.01 158.25 C555.14 158.47 555.24 162.36 555.25 167.50 C555.25 172.38 555.32 180.99 555.39 186.62 C555.49 193.48 555.45 197.00 555.28 197.25 C555.07 197.55 554.28 197.62 551.10 197.62 C548.82 197.62 547.03 197.52 546.83 197.37 Z M607.06 197.49 C606.75 197.37 606.50 197.07 606.50 196.82 C606.50 196.58 606.49 187.84 606.48 177.41 C606.46 163.45 606.53 158.37 606.74 158.16 C606.92 157.98 608.34 157.85 610.57 157.79 C613.42 157.73 614.22 157.79 614.62 158.09 C615.11 158.45 615.13 158.83 615.25 174.00 C615.37 189.02 615.39 189.55 615.86 189.90 C616.26 190.19 618.03 190.25 625.77 190.25 C634.14 190.25 635.21 190.29 635.35 190.65 C635.43 190.86 635.50 192.42 635.50 194.11 C635.50 196.32 635.41 197.26 635.18 197.46 C634.77 197.79 607.89 197.83 607.06 197.49 Z M683.31 197.36 L682.75 196.97 L682.75 177.97 L682.75 158.98 L683.36 158.36 C683.96 157.77 684.10 157.75 687.43 157.75 C689.32 157.76 691.04 157.86 691.25 157.99 C691.58 158.20 691.64 160.73 691.75 177.43 C691.85 192.69 691.81 196.74 691.56 197.19 C691.25 197.73 691.11 197.75 687.55 197.75 C684.62 197.75 683.75 197.67 683.31 197.36 Z M752.31 197.49 C752.00 197.37 751.75 197.12 751.75 196.95 C751.75 196.77 751.72 189.74 751.69 181.32 C751.63 167.00 751.60 165.99 751.18 165.57 C750.77 165.17 750.23 165.13 745.33 165.19 C738.58 165.28 739.00 165.52 739.00 161.59 C739.00 159.06 739.06 158.69 739.51 158.24 C740.02 157.73 740.18 157.73 756.41 157.80 C772.29 157.87 772.80 157.89 773.15 158.36 C773.68 159.09 773.65 164.32 773.11 164.76 C772.82 165.01 771.41 165.07 767.25 165.02 C763.64 164.99 761.60 165.06 761.26 165.24 C760.75 165.52 760.75 165.63 760.75 181.38 C760.75 196.80 760.74 197.24 760.27 197.49 C759.68 197.81 753.10 197.81 752.31 197.49 Z M830.66 197.43 C830.26 197.14 830.22 196.53 830.24 190.67 C830.27 183.34 830.31 183.55 828.03 180.16 C827.32 179.12 826.75 178.18 826.75 178.07 C826.75 177.49 823.49 171.98 821.76 169.64 C821.18 168.86 820.32 167.47 819.83 166.55 C819.35 165.63 818.68 164.52 818.36 164.09 C818.04 163.66 817.26 162.34 816.64 161.16 C815.58 159.15 815.24 158.02 815.69 157.98 C815.79 157.97 817.68 157.96 819.88 157.94 C824.39 157.92 824.71 158.01 825.56 159.52 C825.87 160.08 826.46 161.14 826.88 161.88 C828.25 164.37 829.31 166.12 829.65 166.51 C829.83 166.72 830.38 167.66 830.87 168.60 C831.36 169.54 831.99 170.61 832.27 170.97 C832.55 171.33 833.22 172.34 833.77 173.20 C834.63 174.57 834.85 174.77 835.42 174.70 C835.93 174.64 836.24 174.34 836.74 173.38 C837.09 172.69 837.79 171.51 838.29 170.75 C838.79 169.99 839.57 168.64 840.02 167.75 C840.47 166.86 841.03 165.84 841.26 165.50 C842.17 164.16 843.90 161.33 844.34 160.46 C844.60 159.96 845.19 159.17 845.67 158.71 L846.53 157.88 L850.34 157.80 C855.35 157.69 855.37 157.72 853.43 161.13 C853.11 161.68 852.39 162.75 851.83 163.51 C851.27 164.26 850.73 165.16 850.63 165.50 C850.53 165.84 850.19 166.41 849.87 166.75 C849.35 167.33 848.47 168.66 845.90 172.79 C845.36 173.65 844.70 174.86 844.43 175.49 C844.15 176.11 843.26 177.62 842.44 178.83 C841.63 180.05 840.84 181.40 840.69 181.83 C840.53 182.27 840.21 182.96 839.96 183.38 C839.55 184.05 839.50 184.78 839.50 190.68 C839.50 196.90 839.48 197.25 839.02 197.49 C838.29 197.88 831.20 197.83 830.66 197.43 Z M394.75 190.10 C397.51 189.32 399.56 187.74 401.40 184.93 C403.39 181.92 403.97 178.30 403.09 174.42 C402.63 172.35 402.34 171.73 401.20 170.29 C400.75 169.72 400.13 168.93 399.83 168.54 C399.51 168.13 398.15 167.27 396.58 166.48 L393.88 165.12 L391.00 165.12 C388.58 165.12 387.87 165.22 386.50 165.73 C382.86 167.07 381.16 168.57 379.50 171.88 L378.38 174.12 L378.38 177.62 C378.39 181.45 378.22 180.81 380.37 185.00 C380.72 185.68 381.71 186.78 382.88 187.78 C384.44 189.12 385.11 189.52 386.35 189.86 C389.86 190.81 391.99 190.87 394.75 190.10 Z M481.75 190.40 C485.65 190.28 486.49 190.09 487.58 189.05 C488.62 188.07 489.00 187.19 489.00 185.77 C489.00 184.80 488.84 184.29 488.33 183.57 C486.55 181.08 485.32 180.77 476.97 180.76 C472.53 180.75 471.00 180.83 470.81 181.06 C470.67 181.23 470.48 183.14 470.39 185.29 C470.21 189.19 470.32 190.05 471.09 190.55 C471.23 190.64 472.88 190.67 474.74 190.61 C476.60 190.55 479.76 190.46 481.75 190.40 Z M479.50 173.77 C485.14 173.54 485.75 173.36 486.51 171.67 C487.14 170.30 487.14 168.36 486.52 167.34 C486.26 166.91 485.40 166.19 484.60 165.74 L483.16 164.91 L477.13 164.80 C472.08 164.70 471.07 164.74 470.81 165.05 C470.62 165.29 470.48 166.74 470.43 169.25 C470.35 172.70 470.39 173.14 470.80 173.55 C471.32 174.07 471.90 174.08 479.50 173.77 Z M418.75 130.86 C418.54 130.82 416.74 130.60 414.75 130.38 C407.38 129.56 397.61 125.79 392.10 121.64 C388.78 119.15 380.89 110.64 380.38 109.00 C380.27 108.66 379.91 107.98 379.59 107.50 C379.27 107.03 379.00 106.54 379.00 106.42 C379.00 106.30 378.79 105.90 378.54 105.54 C377.88 104.58 377.07 102.39 376.62 100.38 C376.41 99.41 376.08 98.23 375.90 97.75 C375.72 97.27 375.49 96.34 375.39 95.68 C375.30 95.02 375.03 94.06 374.80 93.55 C374.16 92.12 374.03 80.21 374.63 77.96 C374.87 77.09 375.16 75.81 375.29 75.12 C375.41 74.44 375.68 73.48 375.88 73.00 C376.07 72.52 376.41 71.39 376.63 70.50 C377.02 68.91 378.88 64.74 379.75 63.50 C379.99 63.16 380.27 62.59 380.38 62.25 C380.49 61.91 381.10 61.01 381.75 60.25 C382.40 59.49 383.30 58.31 383.77 57.63 C384.67 56.29 391.11 49.75 391.52 49.75 C391.66 49.75 392.41 49.27 393.20 48.69 C393.98 48.11 395.58 47.14 396.75 46.53 C397.92 45.93 399.37 45.10 399.98 44.69 C400.59 44.29 401.89 43.73 402.86 43.46 C406.33 42.49 407.64 42.10 408.75 41.71 C412.78 40.27 420.97 39.54 428.13 39.97 C431.71 40.19 433.29 40.45 437.25 41.48 C440.33 42.28 445.50 44.13 446.97 44.97 C447.93 45.51 448.97 46.04 449.28 46.14 C450.36 46.48 454.45 49.37 457.36 51.83 C458.31 52.64 459.33 53.41 459.63 53.55 C459.92 53.68 460.37 54.15 460.63 54.58 C460.88 55.02 461.61 55.96 462.26 56.67 C465.18 59.90 470.25 69.12 470.63 71.91 C470.72 72.58 471.00 73.91 471.25 74.88 C471.80 76.95 472.50 82.77 472.50 85.20 C472.50 87.85 471.78 94.40 471.26 96.50 C471.01 97.53 470.72 98.83 470.63 99.38 C470.53 99.92 470.25 100.77 470.00 101.25 C469.75 101.73 468.90 103.47 468.12 105.12 C466.59 108.37 464.98 111.04 463.32 113.08 C462.74 113.79 461.79 115.02 461.20 115.80 C460.61 116.58 459.91 117.30 459.65 117.39 C459.39 117.48 458.48 118.19 457.63 118.97 C455.80 120.64 452.22 123.26 450.85 123.93 C450.31 124.20 448.58 125.10 447.00 125.93 C445.42 126.77 443.73 127.53 443.25 127.63 C442.77 127.73 441.87 128.00 441.25 128.25 C437.57 129.69 435.85 130.05 428.95 130.75 C426.75 130.98 419.66 131.05 418.75 130.86 Z M522.85 129.76 C515.42 129.65 513.24 129.55 512.92 129.29 C512.34 128.80 510.59 125.52 510.38 124.50 C510.27 124.02 509.71 122.61 509.12 121.38 C507.54 118.03 506.83 116.45 506.62 115.75 C506.44 115.13 505.74 113.51 504.63 111.12 C504.30 110.44 503.97 109.61 503.87 109.29 C503.78 108.97 503.21 107.71 502.60 106.48 C502.00 105.25 501.50 104.18 501.50 104.10 C501.50 104.02 501.29 103.68 501.03 103.35 C500.77 103.02 500.48 102.34 500.38 101.83 C500.29 101.32 499.45 99.33 498.52 97.39 C497.59 95.46 496.74 93.59 496.63 93.25 C496.52 92.91 495.99 91.72 495.44 90.62 C494.90 89.53 494.28 88.07 494.08 87.40 C493.54 85.63 491.52 80.95 491.07 80.45 C490.86 80.21 490.54 79.42 490.36 78.70 C489.99 77.18 489.06 74.88 488.43 73.92 C488.19 73.56 488.00 73.19 488.00 73.10 C488.00 72.89 487.02 70.61 485.38 67.00 C484.65 65.42 483.76 63.39 483.38 62.50 C483.01 61.61 482.21 59.86 481.62 58.62 C481.02 57.39 480.42 55.98 480.28 55.50 C479.97 54.38 479.09 52.34 477.96 50.12 C477.47 49.16 476.93 47.92 476.75 47.38 C476.58 46.83 476.17 45.78 475.84 45.06 C475.52 44.33 475.25 43.67 475.25 43.59 C475.25 43.52 475.03 43.17 474.76 42.83 C474.38 42.34 474.32 42.08 474.51 41.72 C474.76 41.27 475.23 41.25 485.48 41.25 C497.74 41.25 496.78 41.06 497.85 43.65 C498.50 45.23 499.58 47.36 499.97 47.85 C500.10 48.00 500.37 48.71 500.58 49.43 C500.80 50.15 501.41 51.67 501.96 52.80 C503.53 56.08 504.19 57.64 504.38 58.50 C504.56 59.35 505.47 61.52 506.27 63.03 C506.53 63.53 506.75 64.08 506.75 64.24 C506.75 64.72 507.95 67.67 509.24 70.38 C509.89 71.75 510.80 73.83 511.26 75.00 C511.72 76.17 512.30 77.39 512.55 77.72 C512.80 78.05 513.00 78.44 513.00 78.60 C513.00 78.75 513.18 79.21 513.40 79.62 C513.76 80.30 514.38 81.84 515.42 84.62 C515.62 85.17 515.99 85.96 516.24 86.38 C516.48 86.79 516.77 87.46 516.86 87.88 C516.96 88.29 517.81 90.21 518.76 92.14 C519.70 94.08 520.59 96.10 520.72 96.64 C521.05 97.99 522.34 101.30 522.92 102.30 C523.47 103.24 524.25 103.47 524.77 102.85 C524.96 102.62 525.31 101.86 525.54 101.16 C526.34 98.71 526.79 97.61 527.87 95.38 C529.46 92.08 530.18 90.41 530.37 89.51 C530.47 89.08 531.04 87.80 531.63 86.67 C532.23 85.55 533.07 83.72 533.50 82.62 C533.93 81.53 534.77 79.50 535.36 78.12 C535.96 76.75 536.53 75.34 536.64 75.00 C536.74 74.66 537.35 73.25 537.99 71.88 C539.50 68.67 540.15 67.12 540.52 65.88 C540.68 65.33 540.95 64.71 541.11 64.50 C541.64 63.84 544.00 58.65 544.00 58.15 C544.00 57.99 544.33 57.19 544.74 56.37 C545.15 55.55 545.49 54.73 545.49 54.55 C545.50 54.37 545.72 53.81 545.98 53.30 C546.74 51.84 549.15 46.30 549.87 44.38 C550.97 41.42 550.87 41.55 552.06 41.37 C553.83 41.11 571.79 41.44 572.09 41.74 C572.28 41.93 572.12 42.47 571.59 43.56 C571.16 44.42 570.73 45.50 570.63 45.95 C570.53 46.41 569.96 47.73 569.36 48.89 C568.76 50.05 567.96 51.76 567.60 52.69 C567.23 53.62 566.45 55.39 565.86 56.63 C565.28 57.86 564.68 59.34 564.53 59.90 C564.38 60.46 563.48 62.54 562.53 64.52 C561.58 66.50 560.72 68.51 560.62 68.99 C560.52 69.47 559.97 70.71 559.40 71.74 C558.83 72.78 557.98 74.64 557.51 75.88 C557.03 77.11 556.22 78.99 555.70 80.05 C555.18 81.11 554.75 82.04 554.75 82.11 C554.75 82.39 552.67 87.13 552.34 87.62 C552.15 87.89 552.00 88.29 552.00 88.51 C552.00 88.73 551.72 89.46 551.38 90.13 C551.05 90.80 550.70 91.67 550.61 92.06 C550.52 92.46 549.97 93.70 549.37 94.83 C548.78 95.95 547.90 97.89 547.41 99.12 C546.93 100.36 546.10 102.28 545.55 103.38 C545.01 104.47 544.48 105.66 544.38 106.00 C544.27 106.34 543.71 107.64 543.12 108.88 C541.39 112.55 540.50 114.68 540.50 115.17 C540.50 115.43 540.24 116.03 539.92 116.50 C539.37 117.32 536.75 123.23 536.75 123.65 C536.75 123.76 536.54 124.30 536.28 124.86 C534.85 127.93 534.50 128.74 534.50 128.97 C534.50 129.37 533.44 130.01 532.88 129.94 C532.60 129.91 528.09 129.83 522.85 129.76 Z M616.26 129.75 L581.89 129.62 L581.56 129.00 C581.29 128.49 581.25 120.74 581.34 85.38 C581.40 61.72 581.52 42.19 581.61 41.96 C581.71 41.74 582.03 41.48 582.33 41.40 C582.63 41.32 598.04 41.26 616.57 41.25 L650.26 41.25 L650.50 41.86 C650.80 42.67 650.52 57.02 650.19 57.44 C649.99 57.68 644.98 57.75 626.63 57.75 C604.66 57.75 603.30 57.78 602.93 58.19 C602.58 58.58 602.52 59.73 602.48 67.12 L602.44 75.60 L603.01 76.06 C603.56 76.50 604.48 76.52 623.82 76.49 C640.49 76.46 644.11 76.51 644.28 76.79 C644.40 76.97 644.49 80.06 644.50 83.66 C644.50 87.25 644.57 90.52 644.65 90.93 C644.75 91.44 644.67 91.80 644.38 92.08 C644.00 92.47 642.27 92.50 623.72 92.50 C610.24 92.50 603.31 92.59 602.98 92.76 C602.52 93.01 602.50 93.38 602.50 102.62 L602.50 112.22 L603.06 112.61 C603.55 112.96 606.29 113.00 627.53 113.00 C649.45 113.00 651.47 113.03 651.78 113.41 C652.05 113.73 652.15 115.47 652.25 121.23 C652.39 129.13 652.33 129.60 651.20 129.78 C650.88 129.83 635.16 129.82 616.26 129.75 Z M852.93 129.85 C852.89 129.81 848.75 129.76 843.74 129.75 C838.73 129.73 834.21 129.61 833.69 129.48 C833.18 129.34 832.59 128.98 832.37 128.68 C831.16 126.95 830.64 126.01 830.36 125.00 C830.02 123.79 828.61 120.33 828.29 119.89 C828.01 119.53 826.50 115.59 826.50 115.25 C826.50 115.10 826.22 114.45 825.88 113.80 C825.53 113.16 825.25 112.50 825.25 112.35 C825.25 112.20 825.02 111.87 824.74 111.61 C824.25 111.17 823.36 111.15 803.33 111.19 C787.45 111.23 782.35 111.31 782.08 111.54 C781.52 112.00 780.83 113.51 780.63 114.68 C780.54 115.26 780.26 115.99 780.01 116.31 C779.33 117.17 778.41 119.12 777.42 121.75 C776.36 124.58 774.47 128.81 774.02 129.35 C773.75 129.67 772.38 129.72 763.56 129.66 C751.91 129.59 752.47 129.71 753.59 127.49 C753.95 126.75 754.25 125.99 754.25 125.80 C754.25 125.60 754.47 125.03 754.74 124.53 C755.00 124.03 755.58 122.78 756.02 121.75 C756.45 120.72 757.58 118.29 758.53 116.34 C759.48 114.40 760.25 112.67 760.25 112.50 C760.25 112.33 761.09 110.48 762.11 108.41 C763.13 106.33 764.09 104.15 764.24 103.57 C764.39 102.99 764.62 102.46 764.74 102.38 C765.02 102.21 766.39 99.41 766.64 98.50 C766.73 98.16 767.53 96.38 768.40 94.55 C769.28 92.72 770.17 90.61 770.39 89.86 C770.61 89.12 770.89 88.44 771.01 88.37 C771.26 88.22 773.80 83.03 774.11 82.06 C774.20 81.75 774.77 80.52 775.36 79.31 C775.96 78.11 776.53 76.84 776.63 76.50 C776.74 76.16 777.59 74.27 778.54 72.32 C779.48 70.36 780.25 68.62 780.25 68.44 C780.25 68.27 780.76 67.11 781.39 65.88 C782.02 64.64 782.99 62.50 783.55 61.12 C784.10 59.75 784.69 58.46 784.86 58.25 C785.17 57.86 786.75 54.46 786.75 54.17 C786.75 54.09 787.52 52.41 788.47 50.44 C789.41 48.48 790.27 46.49 790.37 46.02 C790.63 44.85 792.18 42.08 792.83 41.62 C793.28 41.31 794.91 41.25 803.29 41.25 C809.06 41.25 813.48 41.35 813.85 41.49 C814.31 41.66 814.80 42.35 815.59 43.93 C816.19 45.14 816.77 46.41 816.88 46.75 C817.19 47.77 819.73 52.96 820.00 53.12 C820.13 53.21 820.43 53.92 820.65 54.70 C821.02 56.00 822.99 60.25 823.52 60.89 C823.73 61.15 825.02 64.16 825.56 65.62 C825.70 66.04 826.02 66.66 826.26 67.00 C826.50 67.34 826.81 68.02 826.95 68.50 C827.37 69.89 828.29 71.97 829.41 74.00 C829.97 75.03 830.57 76.29 830.73 76.80 C830.89 77.31 831.74 79.16 832.61 80.92 C833.47 82.68 834.33 84.58 834.51 85.12 C834.68 85.67 835.21 86.86 835.67 87.75 C836.13 88.64 837.20 90.89 838.05 92.75 C838.90 94.61 839.78 96.41 840.01 96.75 C840.25 97.09 840.52 97.77 840.62 98.25 C840.73 98.73 841.57 100.70 842.50 102.62 C843.43 104.55 844.28 106.41 844.38 106.75 C844.48 107.09 845.11 108.41 845.78 109.67 C846.45 110.93 847.00 112.08 847.00 112.22 C847.00 112.62 849.70 118.19 849.98 118.36 C850.12 118.45 850.35 118.95 850.49 119.48 C850.74 120.39 851.88 122.93 852.63 124.25 C852.83 124.59 853.39 125.74 853.89 126.79 C854.61 128.32 854.74 128.80 854.53 129.20 C854.30 129.62 853.17 130.08 852.93 129.85 Z M275.53 129.41 C275.23 129.05 275.16 115.91 275.22 66.33 C275.25 44.60 275.29 41.99 275.64 41.64 C275.98 41.30 277.09 41.25 284.08 41.26 C289.79 41.27 292.33 41.36 292.81 41.57 C293.19 41.74 294.62 43.21 295.99 44.84 C297.35 46.47 298.69 47.96 298.97 48.15 C299.24 48.35 299.98 49.24 300.60 50.13 C302.11 52.29 304.05 54.65 307.34 58.33 C308.84 60.01 310.41 61.84 310.84 62.41 C311.27 62.97 312.58 64.55 313.76 65.91 C314.93 67.26 316.50 69.16 317.24 70.12 C317.99 71.09 319.11 72.45 319.74 73.15 C320.36 73.85 321.83 75.58 323.00 77.00 C325.49 80.02 326.80 81.56 328.68 83.65 C329.43 84.49 330.29 85.58 330.59 86.07 C330.88 86.56 331.80 87.74 332.62 88.68 C333.45 89.63 334.49 90.94 334.94 91.58 C335.86 92.92 336.83 93.52 337.32 93.03 C337.56 92.79 337.64 86.94 337.69 67.30 C337.75 43.75 337.78 41.85 338.17 41.56 C338.78 41.11 357.21 41.11 357.83 41.56 C358.23 41.86 358.26 44.64 358.25 85.48 C358.25 118.08 358.17 129.17 357.96 129.43 C357.72 129.71 356.23 129.76 349.45 129.70 L341.22 129.62 L339.55 127.85 C336.71 124.85 334.61 122.42 333.95 121.37 C333.60 120.81 332.76 119.74 332.08 118.99 C331.40 118.24 330.57 117.23 330.24 116.75 C329.91 116.27 328.96 115.14 328.13 114.24 C327.30 113.34 325.84 111.65 324.88 110.49 C323.91 109.33 322.58 107.81 321.91 107.13 C321.25 106.44 320.57 105.64 320.41 105.33 C320.26 105.03 319.37 103.85 318.44 102.70 C317.52 101.56 316.19 99.89 315.49 99.00 C314.79 98.11 313.32 96.36 312.22 95.12 C310.14 92.78 305.15 86.84 302.12 83.09 C298.94 79.14 296.71 76.75 296.22 76.75 C295.96 76.75 295.75 76.89 295.74 77.06 C295.74 77.23 295.74 88.94 295.75 103.06 C295.76 120.80 295.68 128.91 295.50 129.25 C295.24 129.74 294.96 129.75 285.52 129.75 C277.59 129.75 275.76 129.69 275.53 129.41 Z M669.20 129.25 C668.77 128.89 668.75 127.05 668.74 85.38 C668.74 44.03 668.76 41.86 669.18 41.55 C669.79 41.11 715.33 41.25 716.88 41.71 C717.42 41.87 719.03 42.16 720.44 42.37 C721.86 42.57 723.21 42.84 723.44 42.96 C723.68 43.08 724.48 43.33 725.23 43.50 C726.59 43.82 730.16 45.56 733.88 47.72 C736.46 49.21 740.36 53.06 742.36 56.09 C743.93 58.47 745.02 60.96 746.15 64.75 C746.83 67.06 746.85 67.28 746.85 73.00 C746.85 78.03 746.79 79.04 746.41 80.00 C746.17 80.62 745.82 81.69 745.63 82.38 C744.92 85.04 743.30 88.32 741.31 91.12 C740.17 92.73 735.87 96.89 734.83 97.38 C734.08 97.74 731.28 99.49 730.06 100.37 C729.75 100.59 729.50 100.93 729.50 101.12 C729.50 101.54 731.80 105.02 733.18 106.67 C733.73 107.33 734.32 108.16 734.50 108.50 C734.68 108.84 735.23 109.62 735.73 110.22 C736.22 110.83 736.85 111.76 737.12 112.28 C737.40 112.81 738.22 114.06 738.94 115.06 C739.66 116.06 740.74 117.61 741.33 118.50 C743.08 121.14 744.54 123.22 746.45 125.81 C748.32 128.35 748.58 129.06 747.77 129.49 C747.46 129.66 743.54 129.75 736.79 129.75 L726.30 129.75 L725.32 128.56 C724.78 127.91 724.02 126.81 723.63 126.12 C723.24 125.44 722.40 124.27 721.77 123.53 C721.14 122.79 720.40 121.75 720.12 121.23 C719.85 120.71 718.50 118.62 717.12 116.60 C715.75 114.58 714.47 112.64 714.27 112.29 C714.08 111.94 713.24 110.71 712.40 109.55 C711.56 108.40 710.59 106.94 710.23 106.32 C709.88 105.69 709.28 104.91 708.90 104.58 L708.20 103.98 L699.49 104.05 C692.75 104.11 690.70 104.20 690.45 104.45 C690.20 104.70 690.10 107.39 690.00 116.74 C689.88 128.12 689.85 128.72 689.39 129.23 C688.91 129.76 688.84 129.77 679.28 129.70 C671.16 129.64 669.58 129.57 669.20 129.25 Z M430.75 112.76 C433.79 111.99 438.36 109.61 441.18 107.34 C442.45 106.31 443.62 105.23 443.78 104.94 C443.94 104.65 444.57 103.87 445.18 103.22 C446.65 101.65 448.80 97.71 449.58 95.17 C450.25 93.01 450.86 88.13 450.86 85.00 C450.85 82.18 450.30 78.12 449.61 75.88 C448.70 72.94 446.59 68.92 445.16 67.42 C444.50 66.72 443.66 65.77 443.31 65.31 C442.95 64.85 442.26 64.25 441.77 63.98 C441.28 63.71 440.20 62.92 439.38 62.24 C438.56 61.55 437.38 60.76 436.76 60.48 C436.13 60.20 435.22 59.76 434.71 59.50 C432.34 58.25 430.59 57.80 426.84 57.49 C423.65 57.22 422.59 57.24 419.38 57.59 C415.32 58.02 414.07 58.39 410.12 60.33 C406.88 61.92 402.27 65.83 400.81 68.24 C400.60 68.59 399.99 69.51 399.46 70.30 C398.40 71.85 397.15 74.62 396.89 76.00 C396.79 76.48 396.47 77.61 396.17 78.50 C395.68 79.96 395.63 80.64 395.63 85.38 C395.63 89.90 395.69 90.76 396.08 91.62 C396.33 92.17 396.69 93.37 396.88 94.27 C397.27 96.11 398.60 99.21 399.70 100.82 C400.09 101.40 400.73 102.35 401.11 102.93 C401.83 104.02 405.19 107.36 406.75 108.55 C408.65 109.99 413.26 112.02 416.25 112.73 C419.17 113.43 419.55 113.46 424.38 113.38 C427.75 113.32 429.06 113.20 430.75 112.76 Z M816.36 94.85 C817.21 94.52 816.97 93.24 815.43 90.00 C814.94 88.97 814.24 87.22 813.88 86.12 C813.52 85.03 812.61 82.89 811.88 81.38 C811.14 79.86 810.46 78.34 810.37 78.00 C810.10 76.98 808.98 74.17 808.62 73.59 C808.21 72.95 806.50 68.62 806.50 68.23 C806.50 67.67 803.93 62.78 803.56 62.64 C803.35 62.55 802.96 62.63 802.70 62.81 C802.25 63.11 801.22 65.59 800.73 67.54 C800.61 68.04 800.06 69.34 799.52 70.43 C798.98 71.52 798.08 73.58 797.53 75.02 C796.97 76.45 796.07 78.56 795.51 79.70 C794.95 80.84 794.50 81.89 794.50 82.03 C794.50 82.35 793.16 85.56 792.53 86.75 C791.97 87.79 790.89 90.52 790.54 91.75 C790.40 92.23 790.15 92.98 789.97 93.42 C789.44 94.75 789.85 94.97 793.09 95.08 C796.75 95.21 815.91 95.02 816.36 94.85 Z M707.38 87.51 C713.74 87.32 714.23 87.27 715.99 86.65 C717.82 86.01 719.36 85.15 720.38 84.21 C720.65 83.96 721.39 83.30 722.03 82.75 C723.13 81.80 723.50 81.20 724.75 78.38 C725.87 75.84 725.88 69.42 724.76 67.29 C724.49 66.79 724.02 65.82 723.72 65.14 C722.82 63.16 719.70 60.52 717.50 59.87 C717.16 59.77 716.71 59.54 716.50 59.36 C716.12 59.03 713.71 58.44 710.88 57.98 C710.03 57.84 705.26 57.77 700.01 57.81 L690.64 57.88 L690.32 58.50 C690.08 58.98 690.01 62.33 690.00 73.05 L690.00 86.97 L690.56 87.36 C691.20 87.81 696.05 87.86 707.38 87.51 Z"/></svg>